<?xml version="1.0" standalone="no"?>
<svg viewBox="0 0 200 200" xmlns="http://www.w3.org/2000/svg">
  <path fill="#FFFFFF" d="M40.5,-74.8C47.8,-65.8,46,-45.7,48,-31.3C49.9,-17,55.7,-8.5,62.6,4C69.5,16.5,77.6,33,74.6,45.5C71.6,58.1,57.5,66.7,43.2,70.7C29,74.6,14.5,74,2.7,69.3C-9,64.6,-18.1,55.8,-28.8,49.7C-39.5,43.7,-51.8,40.4,-63.2,32.5C-74.6,24.7,-85.1,12.3,-87.1,-1.2C-89.1,-14.7,-82.6,-29.3,-72.6,-39.6C-62.7,-49.9,-49.2,-55.9,-36.5,-61.9C-23.8,-67.8,-11.9,-73.6,2.3,-77.6C16.5,-81.7,33.1,-83.8,40.5,-74.8Z" transform="translate(100 100)" />
</svg>
