<?xml version="1.0" standalone="no"?>
<svg viewBox="0 0 200 200" xmlns="http://www.w3.org/2000/svg">
  <path fill="#FFFFFF" d="M38.4,-63.7C52,-58.6,66.8,-52.9,69.5,-42.1C72.1,-31.4,62.5,-15.7,59.2,-1.9C55.8,11.8,58.7,23.7,56.9,36C55.2,48.3,48.9,61,38.7,71.7C28.4,82.4,14.2,91,1.7,88C-10.8,85,-21.5,70.4,-35.3,61.8C-49,53.2,-65.8,50.4,-74.4,41.1C-83,31.8,-83.3,15.9,-80.7,1.5C-78,-12.8,-72.3,-25.7,-64,-35.4C-55.7,-45.2,-44.7,-51.9,-33.6,-58.4C-22.5,-64.9,-11.3,-71.2,0.6,-72.2C12.4,-73.2,24.8,-68.7,38.4,-63.7Z" transform="translate(100 100)" />
</svg>
